<svg width="186" height="33" viewBox="0 0 186 33" fill="none" xmlns="http://www.w3.org/2000/svg">
<path fill-rule="evenodd" clip-rule="evenodd" d="M100.424 9.8752C99.5349 9.3184 98.4718 9.04 97.2347 9.04C95.9009 9.04 94.7073 9.3712 93.6539 10.0336C92.6004 10.696 91.7692 11.6464 91.1603 12.8848C90.5514 14.1232 90.247 15.5872 90.247 17.2768C90.247 18.9472 90.5514 20.4064 91.1603 21.6544C91.7692 22.9024 92.6004 23.8576 93.6539 24.52C94.7073 25.1824 95.9009 25.5136 97.2347 25.5136C98.4718 25.5136 99.5349 25.2352 100.424 24.6784C101.313 24.1216 101.961 23.3632 102.367 22.4032V25.312H107.325V4H102.367V12.1504C101.961 11.1904 101.313 10.432 100.424 9.8752ZM46.9581 25.312V18.1696H50.0315C51.6359 18.1696 52.9986 17.8864 54.1197 17.32C55.2409 16.7536 56.0865 15.976 56.6568 14.9872C57.227 13.9984 57.5121 12.8704 57.5121 11.6032C57.5121 9.56799 56.8742 7.95041 55.5985 6.7504C54.3227 5.55039 52.4671 4.9504 50.0315 4.9504H42V25.312H46.9581ZM52.467 11.6032C52.467 13.3504 51.4716 14.224 49.4806 14.224H46.9581V8.9248H49.4806C51.4716 8.9248 52.467 9.81759 52.467 11.6032ZM64.9057 12.2656C65.5243 11.2864 66.3216 10.5088 67.2978 9.9328C68.2739 9.3568 69.3322 9.0688 70.4727 9.0688V14.3392H69.052C67.7375 14.3392 66.7179 14.6176 65.993 15.1744C65.2682 15.7312 64.9057 16.672 64.9057 17.9968V25.312H59.9477V9.2416H64.9057V12.2656ZM84.4336 10.0336C83.1675 9.3712 81.7323 9.04 80.1279 9.04C78.5235 9.04 77.0835 9.3712 75.8077 10.0336C74.5319 10.696 73.5316 11.6512 72.8068 12.8992C72.0819 14.1472 71.7195 15.6064 71.7195 17.2768C71.7195 18.9472 72.0819 20.4064 72.8068 21.6544C73.5316 22.9024 74.5319 23.8576 75.8077 24.52C77.0835 25.1824 78.5235 25.5136 80.1279 25.5136C81.7323 25.5136 83.1675 25.1824 84.4336 24.52C85.6997 23.8576 86.6952 22.9024 87.42 21.6544C88.1449 20.4064 88.5073 18.9472 88.5073 17.2768C88.5073 15.6064 88.1449 14.1472 87.42 12.8992C86.6952 11.6512 85.6997 10.696 84.4336 10.0336ZM80.1279 13.3024C79.1807 13.3024 78.3834 13.6432 77.7358 14.3248C77.0883 15.0064 76.7645 15.9904 76.7645 17.2768C76.7645 18.5632 77.0883 19.5424 77.7358 20.2144C78.3834 20.8864 79.1807 21.2224 80.1279 21.2224C81.0751 21.2224 81.8676 20.8864 82.5054 20.2144C83.1433 19.5424 83.4623 18.5632 83.4623 17.2768C83.4623 15.9904 83.1433 15.0064 82.5054 14.3248C81.8676 13.6432 81.0751 13.3024 80.1279 13.3024ZM98.8294 13.36C97.7663 13.36 96.9109 13.7056 96.2634 14.3968C95.6158 15.088 95.2921 16.048 95.2921 17.2768C95.2921 18.5056 95.6158 19.4656 96.2634 20.1568C96.9109 20.848 97.7663 21.1936 98.8294 21.1936C99.8732 21.1936 100.729 20.8384 101.395 20.128C102.062 19.4176 102.396 18.4672 102.396 17.2768C102.396 16.0672 102.062 15.112 101.395 14.4112C100.729 13.7104 99.8732 13.36 98.8294 13.36ZM121.851 25.312H126.838V9.2416H121.851V17.7664C121.851 18.9376 121.561 19.84 120.981 20.4736C120.401 21.1072 119.609 21.424 118.604 21.424C117.637 21.424 116.869 21.1216 116.299 20.5168C115.728 19.912 115.443 19.0624 115.443 17.968V9.2416H110.514V18.5728C110.514 20.7232 111.06 22.4128 112.152 23.6416C113.245 24.8704 114.718 25.4848 116.574 25.4848C117.792 25.4848 118.86 25.2064 119.778 24.6496C120.696 24.0928 121.387 23.344 121.851 22.4032V25.312ZM137.566 9.04C139.654 9.04 141.403 9.61119 142.814 10.7536C144.225 11.896 145.114 13.4656 145.482 15.4624H140.234C140.079 14.7712 139.76 14.2336 139.277 13.8496C138.794 13.4656 138.185 13.2736 137.45 13.2736C136.58 13.2736 135.865 13.6144 135.305 14.296C134.744 14.9776 134.464 15.9712 134.464 17.2768C134.464 18.5824 134.744 19.576 135.305 20.2576C135.865 20.9392 136.58 21.28 137.45 21.28C138.185 21.28 138.794 21.088 139.277 20.704C139.76 20.32 140.079 19.7824 140.234 19.0912H145.482C145.114 21.088 144.225 22.6576 142.814 23.8C141.403 24.9424 139.654 25.5136 137.566 25.5136C135.981 25.5136 134.575 25.1824 133.347 24.52C132.12 23.8576 131.158 22.9024 130.463 21.6544C129.767 20.4064 129.419 18.9472 129.419 17.2768C129.419 15.5872 129.762 14.1232 130.448 12.8848C131.134 11.6464 132.096 10.696 133.333 10.0336C134.57 9.3712 135.981 9.04 137.566 9.04ZM157.225 25.312V21.0784H155.659C155.04 21.0784 154.601 20.9536 154.34 20.704C154.079 20.4544 153.948 20.0128 153.948 19.3792V13.3888H157.196V9.2416H153.948V5.296H148.99V9.2416H146.815V13.3888H148.99V19.2928C148.99 21.4432 149.517 22.984 150.57 23.9152C151.624 24.8464 153.098 25.312 154.992 25.312H157.225ZM164.966 4V25.312H160.008V4H164.966ZM176.013 19.0912L172.128 9.2416H166.59L173.375 24.7072L169.576 32.9728H175.027L185.117 9.2416H179.637L176.013 19.0912Z" fill="#173A56"/>
<rect width="30" height="30" rx="6" fill="white"/>
<path d="M15.6 11L23.6521 2.24204C23.8248 2.05418 24.0683 1.94727 24.3235 1.94727C26.6871 1.94727 28.659 3.75315 28.8664 6.10766L29 7.62468V18.4L15.6 11Z" fill="#35B74B"/>
<path d="M9.99999 28.9473L3.65662 2.94727C2.5 3.5 1.21685 4.5 0.999998 7C0.872818 8.46619 0.728901 18.1548 1.21685 23.551C1.60721 27.868 7.23493 28.9473 9.99999 28.9473Z" fill="#FECC2F"/>
<path d="M8.5 19L15 11.5L29 19.2331C29 21.6616 28.975 24.0429 28.5 25.5C27.3921 28.8986 24.4083 28.6235 22.825 28.9473H11L8.5 19Z" fill="#157FFB"/>
<path d="M8.20001 18L4.60001 2.5C7.43485 0.610033 16.1333 0.905355 22.0044 1.36548C22.4153 1.39769 22.6077 1.88592 22.333 2.19317L8.20001 18Z" fill="#FC3B36"/>
</svg>
